<?xml version="1.0" encoding="UTF-8" standalone="no"?>
<svg
   xmlns:dc="http://purl.org/dc/elements/1.1/"
   xmlns:cc="http://creativecommons.org/ns#"
   xmlns:rdf="http://www.w3.org/1999/02/22-rdf-syntax-ns#"
   xmlns:svg="http://www.w3.org/2000/svg"
   xmlns="http://www.w3.org/2000/svg"
   xmlns:sodipodi="http://sodipodi.sourceforge.net/DTD/sodipodi-0.dtd"
   xmlns:inkscape="http://www.inkscape.org/namespaces/inkscape"
   width="165"
   height="72.515999"
   viewBox="0 0 43.65625 19.186525"
   version="1.1"
   id="svg8"
   inkscape:version="1.0.2-2 (e86c870879, 2021-01-15)"
   sodipodi:docname="logo.svg">
  <defs
     id="defs2">
    <rect
       x="24.906731"
       y="57.158833"
       width="15.028468"
       height="39.006474"
       id="rect987" />
  </defs>
  <sodipodi:namedview
     id="base"
     pagecolor="#ffffff"
     bordercolor="#666666"
     borderopacity="1.0"
     inkscape:pageopacity="0.0"
     inkscape:pageshadow="2"
     inkscape:zoom="5.6568543"
     inkscape:cx="87.734089"
     inkscape:cy="45.22461"
     inkscape:document-units="mm"
     inkscape:current-layer="layer1"
     inkscape:document-rotation="0"
     showgrid="false"
     showguides="false"
     inkscape:window-width="1920"
     inkscape:window-height="1057"
     inkscape:window-x="-8"
     inkscape:window-y="-8"
     inkscape:window-maximized="1"
     units="px"
     width="3303px" />
  <metadata
     id="metadata5">
    <rdf:RDF>
      <cc:Work
         rdf:about="">
        <dc:format>image/svg+xml</dc:format>
        <dc:type
           rdf:resource="http://purl.org/dc/dcmitype/StillImage" />
        <dc:title></dc:title>
      </cc:Work>
    </rdf:RDF>
  </metadata>
  <g
     inkscape:label="Ebene 1"
     inkscape:groupmode="layer"
     id="layer1">
    <g
       aria-label="C"
       id="text1033"
       style="font-size:25.4px;line-height:1.25;font-family:sans-serif;letter-spacing:0px;stroke-width:0.264583">
      <path
         d="m 13.658267,19.186425 q -2.058789,0 -3.8075197,-0.607714 Q 8.1144192,17.970996 6.8617825,16.767968 5.6091458,15.564941 4.9146146,13.766601 4.2324857,11.968261 4.2324857,9.6118162 q 0,-2.1952148 0.6573242,-3.9811523 Q 5.5471341,3.8447264 6.7997708,2.567285 8.0027981,1.339453 9.7763332,0.66972645 11.562271,-9.8720193e-8 13.670669,-9.8720193e-8 q 1.16582,0 2.095996,0.136425778720193 0.942578,0.12402344 1.736328,0.33486328 0.830957,0.23564452 1.500684,0.53330074 0.682129,0.2852539 1.190625,0.5333008 v 4.477246 H 19.648599 Q 19.301333,5.7174803 18.768032,5.3082029 18.247134,4.8989256 17.577407,4.5020506 16.895278,4.1051756 16.101528,3.8323241 15.307778,3.5594725 14.402407,3.5594725 q -1.004589,0 -1.909961,0.3224609 Q 11.587075,4.191992 10.81813,4.9237303 10.086392,5.6306639 9.6275051,6.7964842 9.1810207,7.9623045 9.1810207,9.6242185 q 0,1.7363285 0.4836914,2.9021485 0.4960939,1.16582 1.2402339,1.835547 0.756543,0.682129 1.686719,0.979785 0.930176,0.285254 1.835547,0.285254 0.868164,0 1.711523,-0.260449 0.855762,-0.26045 1.575098,-0.706934 0.607715,-0.359668 1.128613,-0.768945 0.520899,-0.409278 0.855762,-0.706934 h 0.496094 v 4.415234 q -0.694531,0.310059 -1.327051,0.582911 -0.632519,0.272851 -1.327051,0.471289 -0.905371,0.260449 -1.699121,0.396875 -0.79375,0.136425 -2.182812,0.136425 z"
         style="font-style:normal;font-variant:normal;font-weight:bold;font-stretch:normal;font-size:25.4px;font-family:sans-serif;-inkscape-font-specification:'sans-serif Bold';stroke-width:0.264583"
         id="path2192" />
    </g>
    <rect
       style="opacity:0.999;fill:#000000;fill-opacity:1;stroke:#ffffff;stroke-width:0.348691;stroke-linejoin:round;stroke-opacity:1"
       id="rect853"
       width="43.347214"
       height="2.4397805"
       x="0.17434549"
       y="8.1137486"
       ry="0"
       inkscape:export-xdpi="1920"
       inkscape:export-ydpi="1920" />
    <g
       aria-label="UT"
       id="text835"
       style="font-size:10.5833px;line-height:0;font-family:sans-serif;letter-spacing:0px;stroke-width:0.264583">
      <path
         d="m 28.656775,15.822226 q 0,1.426265 -0.868162,2.185906 -0.868161,0.759641 -2.557975,0.759641 -1.689814,0 -2.557975,-0.759641 -0.862994,-0.759641 -0.862994,-2.180739 V 10.91298 h 1.994704 v 4.800725 q 0,0.800983 0.335896,1.193722 0.335896,0.39274 1.090369,0.39274 0.744138,0 1.085202,-0.377237 0.346231,-0.377237 0.346231,-1.209225 V 10.91298 h 1.994704 z"
         style="letter-spacing:0.0661458px;word-spacing:0px"
         id="path2200" />
      <path
         d="m 38.932451,10.332463 h -3.203936 v 8.275113 H 33.082684 V 10.332463 H 29.878747 V 8.3480899 h 9.053704 z"
         style="font-size:14.1111px;line-height:1.25;letter-spacing:-1.01335px"
         id="path2202" />
    </g>
    <text
       xml:space="preserve"
       id="text985"
       style="font-size:10.5833px;line-height:1.25;font-family:sans-serif;letter-spacing:0px;white-space:pre;shape-inside:url(#rect987);" />
    <g
       aria-label="AM"
       id="text835-7"
       style="font-size:10.5833px;line-height:0;font-family:sans-serif;letter-spacing:0px;stroke-width:0.264583">
      <path
         d="M 29.210341,7.8770752 H 27.158794 L 26.626528,6.3216195 h -2.85253 l -0.532265,1.5554557 h -1.999872 l 2.842195,-7.69459627 h 2.284091 z M 26.145939,4.9108574 25.200263,2.1513447 24.254587,4.9108574 Z"
         style="font-style:normal;font-variant:normal;font-weight:bold;font-stretch:normal;line-height:1.25;font-family:sans-serif;-inkscape-font-specification:'sans-serif Bold';stroke-width:0.264583"
         id="path2195" />
      <path
         d="M 38.382879,7.8770752 H 36.408846 V 2.7249513 L 34.982581,6.0684058 H 33.61316 L 32.186895,2.7249513 V 7.8770752 H 30.316214 V 0.18247893 h 2.304762 L 34.35213,4.0426961 36.078118,0.18247893 h 2.304761 z"
         style="font-style:normal;font-variant:normal;font-weight:bold;font-stretch:normal;line-height:1.25;font-family:sans-serif;-inkscape-font-specification:'sans-serif Bold';stroke-width:0.264583"
         id="path2197" />
    </g>
  </g>
</svg>
