<?xml version="1.0" encoding="UTF-8" standalone="no"?>
<svg
   width="165"
   height="72.515999"
   viewBox="0 0 43.65625 19.186525"
   version="1.1"
   id="svg8"
   inkscape:version="1.1.1 (3bf5ae0d25, 2021-09-20)"
   sodipodi:docname="logo.svg"
   xmlns:inkscape="http://www.inkscape.org/namespaces/inkscape"
   xmlns:sodipodi="http://sodipodi.sourceforge.net/DTD/sodipodi-0.dtd"
   xmlns="http://www.w3.org/2000/svg"
   xmlns:svg="http://www.w3.org/2000/svg"
   xmlns:rdf="http://www.w3.org/1999/02/22-rdf-syntax-ns#"
   xmlns:cc="http://creativecommons.org/ns#"
   xmlns:dc="http://purl.org/dc/elements/1.1/">
  <defs
     id="defs2">
    <rect
       x="24.906731"
       y="57.158833"
       width="15.028468"
       height="39.006474"
       id="rect987" />
  </defs>
  <sodipodi:namedview
     id="base"
     pagecolor="#ffffff"
     bordercolor="#666666"
     borderopacity="1.0"
     inkscape:pageopacity="0.0"
     inkscape:pageshadow="2"
     inkscape:zoom="5.6568543"
     inkscape:cx="92.189046"
     inkscape:cy="47.199377"
     inkscape:document-units="mm"
     inkscape:current-layer="layer1"
     inkscape:document-rotation="0"
     showgrid="false"
     showguides="true"
     inkscape:window-width="1920"
     inkscape:window-height="1046"
     inkscape:window-x="-11"
     inkscape:window-y="-11"
     inkscape:window-maximized="1"
     units="px"
     width="3303px"
     inkscape:pagecheckerboard="0"
     inkscape:guide-bbox="true" />
  <metadata
     id="metadata5">
    <rdf:RDF>
      <cc:Work
         rdf:about="">
        <dc:format>image/svg+xml</dc:format>
        <dc:type
           rdf:resource="http://purl.org/dc/dcmitype/StillImage" />
        <dc:title />
      </cc:Work>
    </rdf:RDF>
  </metadata>
  <g
     inkscape:label="Ebene 1"
     inkscape:groupmode="layer"
     id="layer1">
    <g
       aria-label="C"
       id="text1033"
       style="font-size:25.4px;line-height:1.25;font-family:sans-serif;letter-spacing:0px;stroke-width:0.264583;fill:#535d6c">
      <path
         id="path2192"
         style="font-style:normal;font-variant:normal;font-weight:bold;font-stretch:normal;font-size:25.4px;font-family:sans-serif;-inkscape-font-specification:'sans-serif Bold';stroke:#00ffff;stroke-width:0.999999;stroke-opacity:0;fill:#535d6c"
         transform="scale(0.26458333)"
         d="M 51.667969,0 C 46.35547,0 41.44922,0.84375007 36.949219,2.53125 c -4.46875,1.6875 -8.21875,4.0781251 -11.25,7.171875 -3.15625,3.21875 -5.5625,7.078125 -7.21875,11.578125 -0.948317,2.576559 -1.621457,5.575451 -2.026797,8.490089 h 19.053602 c 0.240271,-1.027574 0.531685,-3.175672 0.879472,-4.083783 1.15625,-2.9375 2.65625,-5.296875 4.5,-7.078125 1.937499,-1.84375 4.046875,-3.15625 6.328125,-3.9375 2.281252,-0.8125 4.687502,-1.21875 7.21875,-1.21875 2.28125,0 4.421875,0.34375 6.421875,1.03125 2,0.6875 3.859375,1.53125 5.578125,2.53125 1.687501,1 3.187501,2.015625 4.5,3.046875 1.34375,1.03125 2.453124,1.921875 3.328125,2.671875 h 2.0625 V 5.8125 c -1.28125,-0.6250001 -2.78125,-1.296875 -4.5,-2.015625 C 70.136663,3.0468751 68.246094,2.375 66.152344,1.78125 64.152344,1.25 61.964843,0.82812501 59.589844,0.515625 57.246093,0.17187501 54.605468,0 51.667969,0 Z m -16.724718,41.245983 -18.734375,2e-6 c 0.348354,3.975351 1.132078,7.533935 2.365343,10.785268 1.75,4.53125 4.203125,8.312501 7.359375,11.34375 3.15625,3.031252 6.921875,5.3125 11.296875,6.84375 4.40625,1.531248 9.203125,2.296875 14.390625,2.296875 3.499998,0 6.25,-0.171877 8.25,-0.515625 2,-0.343751 4.140625,-0.843751 6.421875,-1.5 1.750002,-0.500001 3.421876,-1.093751 5.015625,-1.78125 1.593751,-0.687501 3.265625,-1.421874 5.015625,-2.203125 v -16.6875 h -1.875 c -0.84375,0.749999 -1.921874,1.640623 -3.234375,2.671875 -1.312499,1.031249 -2.734375,2 -4.265625,2.90625 -1.8125,1.124999 -3.796875,2.015623 -5.953125,2.671875 -2.124999,0.656249 -4.28125,0.984375 -6.46875,0.984375 -2.28125,0 -4.59375,-0.359375 -6.9375,-1.078125 -2.343751,-0.749999 -4.46875,-1.984375 -6.375,-3.703125 -1.874999,-1.687501 -3.4375,-4.000001 -4.6875,-6.9375 -0.775465,-1.869067 -1.584093,-3.63055 -1.584093,-6.097767 z"
         sodipodi:nodetypes="sccscccccssccccccccscccscsscscccsccscccsc" />
    </g>
    <rect
       style="opacity:0.999;fill:#535d6c;fill-opacity:1;stroke:none;stroke-width:0.34062;stroke-linejoin:round;stroke-miterlimit:4;stroke-dasharray:none;stroke-opacity:1"
       id="rect853"
       width="43.347214"
       height="2.3240254"
       x="0.17434549"
       y="8.2139997"
       ry="0"
       inkscape:export-xdpi="1920"
       inkscape:export-ydpi="1920" />
    <g
       aria-label="UT"
       id="text835"
       style="font-size:10.5833px;line-height:0;font-family:sans-serif;letter-spacing:0px;stroke-width:0.264583;fill:#535d6c">
      <path
         d="m 28.656775,15.822226 c 0,0.950843 -0.289387,1.679479 -0.868162,2.185906 -0.578774,0.506427 -1.431432,0.759641 -2.557975,0.759641 -1.126543,0 -1.979201,-0.253214 -2.557975,-0.759641 -0.575329,-0.506427 -0.862994,-1.23334 -0.862994,-2.180739 V 10.91298 l 1.994704,2e-5 v 4.800705 c 0,0.533989 0.111965,0.931896 0.335896,1.193722 0.223931,0.261827 0.587387,0.39274 1.090369,0.39274 0.496092,0 0.857826,-0.125746 1.085202,-0.377237 0.230821,-0.251491 0.346231,-0.654566 0.346231,-1.209225 V 10.91298 h 1.994704 z"
         style="letter-spacing:0.0661458px;word-spacing:0px;fill:#535d6c"
         id="path2200"
         sodipodi:nodetypes="ssscsccssscsccs" />
      <path
         d="m 38.932451,10.332463 h -3.203936 v 8.275113 H 33.082684 V 10.332463 H 29.878747 V 8.3480899 h 9.053704 z"
         style="font-size:14.1111px;line-height:1.25;letter-spacing:-1.01335px;fill:#535d6c"
         id="path2202" />
    </g>
    <text
       xml:space="preserve"
       id="text985"
       style="font-size:10.5833px;line-height:1.25;font-family:sans-serif;letter-spacing:0px;white-space:pre;shape-inside:url(#rect987)" />
    <g
       aria-label="AM"
       id="text835-7"
       style="font-size:10.5833px;line-height:0;font-family:sans-serif;letter-spacing:0px;stroke-width:0.264583;fill:#535d6c">
      <path
         d="M 29.210341,7.8770752 H 27.158794 L 26.626528,6.3216195 h -2.85253 L 23.241733,7.8770752 21.241861,7.877 24.084056,0.18247893 h 2.284091 z M 26.145939,4.9108574 25.200263,2.1513447 24.254587,4.9108574 Z"
         style="font-style:normal;font-variant:normal;font-weight:bold;font-stretch:normal;line-height:1.25;font-family:sans-serif;-inkscape-font-specification:'sans-serif Bold';stroke-width:0.264583;fill:#535d6c"
         id="path2195"
         sodipodi:nodetypes="ccccccccccccc" />
      <path
         d="M 38.382879,7.8770752 H 36.408846 V 2.7249513 L 34.982581,6.0684058 H 33.61316 L 32.186895,2.7249513 V 7.8770752 H 30.316214 V 0.18247893 h 2.304762 L 34.35213,4.0426961 36.078118,0.18247893 h 2.304761 z"
         style="font-style:normal;font-variant:normal;font-weight:bold;font-stretch:normal;line-height:1.25;font-family:sans-serif;-inkscape-font-specification:'sans-serif Bold';stroke-width:0.264583;fill:#535d6c"
         id="path2197" />
    </g>
  </g>
</svg>
